# xmcd
#
# Track frame offsets:
#	150
#	3279
#	19000
#	34114
#	51895
#	61830
#	81945
#	92948
#	109495
#	127915
#	138821
#	156468
#
# Disc length: 2228 seconds
#
# Revision: 0
# Processed by: cddbd v1.5.2PL0 Copyright (c) Steve Scherf et al.
# Submitted via: dBpowerAMP V4.0
#
DISCID=9708b20c
DTITLE=The Silver Shine - No Mercy
DYEAR=2009
DGENRE=Psychobilly
TTITLE0=Intro
TTITLE1=No Mercy
TTITLE2=Blood Countess
TTITLE3=Angels To Some
TTITLE4=Maggots
TTITLE5=Voices
TTITLE6=A Killer In The Crowd
TTITLE7=Full Moon
TTITLE8=Where Darkness Falls
TTITLE9=I Sold My Soul For R'N'R
TTITLE10=Burning Eyes
TTITLE11=Emergency
EXTD=
EXTT0=
EXTT1=
EXTT2=
EXTT3=
EXTT4=
EXTT5=
EXTT6=
EXTT7=
EXTT8=
EXTT9=
EXTT10=
EXTT11=
PLAYORDER=
